<svg aria-hidden="true" style="position:absolute;width:0;height:0;overflow:hidden" xmlns="http://www.w3.org/2000/svg">
  <defs>
    <symbol id="open-icon" viewBox="0 0 32 32">
      <path stroke-width="3" stroke-linecap="round" stroke-linejoin="round" d="M5.333 8h21.333M5.333 16H16M5.333 24h21.333"/>
    </symbol>
    <symbol id="close-icon" viewBox="0 0 32 32">
      <path stroke-width="3" stroke-linecap="round" stroke-linejoin="round" d="M24 8 8 24M8 8l16 16"/>
    </symbol>
    <symbol id="logo-main" viewBox="0 0 336 32">
      <path d="M29.082.314h-4.009c-1.237 0-2.24.983-2.24 2.195v3.929c0 1.212 1.003 2.195 2.24 2.195h4.009c1.237 0 2.24-.983 2.24-2.195V2.509c0-1.212-1.003-2.195-2.24-2.195zM6.73 23.04H2.412C1.08 23.04 0 24.023 0 25.235v3.929c0 1.213 1.08 2.195 2.412 2.195H6.73c1.332 0 2.412-.983 2.412-2.195v-3.929c0-1.212-1.08-2.195-2.412-2.195zM6.25 11.582H2.241c-1.237 0-2.24.983-2.24 2.195v3.929c0 1.212 1.003 2.195 2.24 2.195H6.25c1.237 0 2.24-.983 2.24-2.195v-3.929c0-1.212-1.003-2.195-2.24-2.195zM17.766 22.978h-4.009c-1.237 0-2.24.983-2.24 2.195v3.929c0 1.212 1.003 2.195 2.241 2.195h4.009c1.237 0 2.24-.983 2.24-2.195v-3.929c0-1.213-1.003-2.195-2.24-2.195zM6.25.086H2.241c-1.237 0-2.24.983-2.24 2.195V6.21c0 1.212 1.003 2.195 2.24 2.195H6.25c1.237 0 2.24-.983 2.24-2.195V2.281C8.49 1.069 7.487.086 6.25.086zM18.076 11.697h-4.009c-1.237 0-2.24.983-2.24 2.195v3.929c0 1.212 1.003 2.195 2.24 2.195h4.009c1.237 0 2.24-.983 2.24-2.195v-3.929c0-1.212-1.003-2.195-2.24-2.195zM29.333 22.978h-4.01c-1.237 0-2.24.983-2.24 2.195v3.929c0 1.212 1.003 2.195 2.24 2.195h4.009c1.237 0 2.24-.983 2.24-2.195v-3.929c0-1.213-1.003-2.195-2.24-2.195zM17.591.224h-4.009c-1.237 0-2.24.983-2.24 2.195v3.929c0 1.212 1.003 2.195 2.24 2.195h4.009c1.237 0 2.24-.984 2.24-2.196V2.418c0-1.212-1.003-2.195-2.24-2.195zM29.044 11.926h-4.01c-1.237 0-2.24.983-2.24 2.195v3.929c0 1.212 1.003 2.195 2.24 2.195h4.009c1.237 0 2.24-.983 2.24-2.195v-3.929c0-1.212-1.003-2.195-2.24-2.195zM52.602 28C45.026 28 40 23.296 40 15.968 40 8.8 44.955 4 52.422 4c6.283 0 10.699 3.296 11.345 8.256h-5.206c-.503-2.848-2.908-4.448-6.139-4.448-4.524 0-7.216 3.264-7.216 8.16 0 5.376 3.016 8.224 7.396 8.224 3.806 0 6.247-1.92 6.498-4.8v-.32h-7.001v-3.584h11.848v2.944C63.732 24.16 59.208 28 52.602 28zM67.086 27.68V4.32h12.602c6.427 0 8.976 2.784 8.976 6.816 0 3.616-2.872 5.344-6.211 5.76v.096c2.154.48 3.124 1.536 4.021 3.616 1.149 2.624 1.328 5.76 2.8 6.88v.192h-5.745c-1.221-1.088-1.508-4.512-2.154-6.592-.646-2.144-2.046-2.4-4.667-2.4h-4.596v8.992h-5.026zm5.026-12.704h7.037c2.944 0 4.308-1.536 4.308-3.52 0-2.176-1.687-3.424-4.308-3.424h-7.037v6.944zM92.002 27.68V4.32h17.916v3.712H97.029V13.6h11.633v3.712H97.029v6.56h13.069v3.808H92.003zM113.587 27.68V4.32h17.916v3.712h-12.889V13.6h11.633v3.712h-11.633v6.56h13.069v3.808h-18.095zM135.172 27.68V4.32h6.104l8.688 12.896c2.657 3.904 2.98 5.184 2.98 5.184h.108l-.072-18.08h5.026v23.36h-6.139l-9.012-13.28c-2.046-3.008-2.585-4.832-2.585-4.832h-.072V27.68h-5.026zM161.788 27.68v-4.736h5.242v4.736h-5.242zM170.805 27.68V4.32h5.026v9.344h12.028V4.32h5.026v23.36h-5.026V17.376h-12.028V27.68h-5.026zM195.033 27.68l10.053-23.36h5.458l10.196 23.36h-5.386l-2.118-5.376h-10.878l-2.118 5.376h-5.207zm8.761-9.088h8.006l-2.334-5.76c-1.616-4.256-1.652-5.024-1.652-5.024h-.072s0 .768-1.614 5.024l-2.334 5.76zM222.88 27.68V4.32h12.602c6.428 0 8.976 2.784 8.976 6.816 0 3.616-2.872 5.344-6.21 5.76v.096c2.154.48 3.122 1.536 4.02 3.616 1.15 2.624 1.328 5.76 2.8 6.88v.192h-5.744c-1.22-1.088-1.508-4.512-2.154-6.592-.646-2.144-2.046-2.4-4.668-2.4h-4.594v8.992h-5.028zm5.028-12.704h7.036c2.944 0 4.308-1.536 4.308-3.52 0-2.176-1.688-3.424-4.308-3.424h-7.036v6.944zM253.126 27.68l-9.622-23.36h5.386s5.206 13.088 5.744 14.688c.862 2.56 1.256 3.872 1.256 3.872h.072c-.036 0 .36-1.312 1.256-3.872.576-1.6 5.566-14.688 5.566-14.688h5.206l-9.264 23.36h-5.6zM270.048 27.68V4.32h17.916v3.712h-12.89V13.6h11.634v3.712h-11.634v6.56h13.07v3.808h-18.096zM300.622 28c-6.678 0-10.7-3.232-10.7-8.032h5.746c-.072 2.72 1.938 4.224 4.954 4.224 3.196 0 4.702-1.12 4.702-2.784s-1.292-2.368-5.888-3.488c-4.2-1.024-8.796-2.24-8.796-7.04 0-3.808 3.734-6.88 9.622-6.88 6.068 0 9.946 3.04 9.946 7.328h-5.566c-.036-2.272-1.758-3.52-4.38-3.52-2.548 0-4.236 1.152-4.236 2.688 0 1.824 1.4 2.4 5.062 3.328 5.422 1.344 9.802 1.888 9.802 7.104 0 4.192-4.272 7.072-10.268 7.072zM319.074 27.68V8.128h-7.934V4.32H332v3.808h-7.898V27.68h-5.028z"/>
    </symbol>
    <symbol id="facebook" viewBox="0 0 28 28">
      <path d="M17.08 4.06h.84v3.15h-1.05c-.42 0-.84 0-1.05.21-.21.21-.21.42-.21.91v1.12h2.31v2.66h-2.31v11.55h-3.57V12.04h-1.89V9.38h1.89v-.91c0-1.54.21-2.66.63-3.15.63-.91 1.89-1.33 3.78-1.33.21.07.42.07.63.07Z"/>
    </symbol>
    <symbol id="instagram" viewBox="0 0 28 28">
      <path d="M25.128 9.411a8.098 8.098 0 0 0-.521-2.751 5.73 5.73 0 0 0-3.276-3.27 8.23 8.23 0 0 0-2.719-.522C17.416 2.815 17.036 2.8 14 2.8c-3.038 0-3.427 0-4.615.068-.93.02-1.849.195-2.718.522A5.726 5.726 0 0 0 3.39 6.66a8.127 8.127 0 0 0-.522 2.713c-.053 1.196-.07 1.575-.07 4.607 0 3.033 0 3.42.07 4.607a8.18 8.18 0 0 0 .522 2.716 5.729 5.729 0 0 0 3.276 3.269 8.2 8.2 0 0 0 2.718.558c1.198.054 1.577.07 4.615.07 3.037 0 3.427 0 4.615-.07a8.208 8.208 0 0 0 2.719-.52 5.736 5.736 0 0 0 3.275-3.27c.327-.869.502-1.785.521-2.715.054-1.195.07-1.574.07-4.608-.003-3.032-.003-3.417-.072-4.606ZM13.99 19.715a5.745 5.745 0 0 1-5.75-5.741 5.744 5.744 0 0 1 5.75-5.741c3.175 0 5.75 2.57 5.75 5.74a5.746 5.746 0 0 1-5.75 5.742Zm5.98-10.356a1.338 1.338 0 1 1 0-2.677 1.339 1.339 0 1 1 0 2.677Z"/>
      <path d="M13.993 17.479a3.503 3.503 0 1 0 0-7.007 3.503 3.503 0 0 0 0 7.007Z"/>
    </symbol>
    <symbol id="youtube" viewBox="0 0 28 28">
      <path fill-rule="evenodd" d="M21.21 5.25c-1.19-.07-3.64-.14-7.35-.14h-.49c-3.57 0-5.95.07-7.14.21-1.61.14-2.73.56-3.36 1.12-.56.49-.98 1.4-1.12 2.59-.07.77-.14 2.38-.14 4.83v.35c0 2.31.07 3.92.21 4.69.21 1.12.56 1.96 1.26 2.45.7.56 1.89.91 3.57 1.05 1.19.07 3.64.14 7.35.14h.49c3.57 0 5.95-.07 7.14-.21 1.61-.14 2.73-.56 3.36-1.12.56-.49.98-1.4 1.12-2.59.07-.77.14-2.38.14-4.83v-.35c0-2.31-.07-3.92-.21-4.69-.21-1.12-.56-1.96-1.26-2.45-.7-.56-1.89-.91-3.57-1.05Zm-2.73 8.61-7.7 4.62V9.24l7.7 4.62Z" clip-rule="evenodd"/>
    </symbol>
  </defs>
</svg>
